# xmcd CD database file
#
# Track frame offsets:
#	150
#	17217
#	30085
#	43940
#	66712
#	83105
#	102935
#	118827
#	162550
#	181300
#	199975
#	211750
#	234250
#	254712
#	273987
#	301675
#
# Disc length: 4228 seconds
#
# Revision: 10
# Processed by: cddbd v1.5.2PL0 Copyright (c) Steve Scherf et al.
# Submitted via: CDex 1.51
#
DISCID=e0108210
DTITLE=Ryan Adams - Gold
DYEAR=2001
DGENRE=Alternative Country
TTITLE0=New York, New York
TTITLE1=Firecracker
TTITLE2=Answering Bell
TTITLE3=La Cienega Just Smiled
TTITLE4=The Rescue Blues
TTITLE5=Somehow, Someday
TTITLE6=When the Stars Go Blue
TTITLE7=Nobody Girl
TTITLE8=Sylvia Plath
TTITLE9=Enemy Fire
TTITLE10=Gonna Make You Love Me
TTITLE11=Wild Flowers
TTITLE12=Harder Now That It's Over
TTITLE13=Touch, Feel and Lose
TTITLE14=Tina Toledo's Street Walkin' Blues
TTITLE15=Goodnight, Hollywood Blvd
EXTD=YEAR: 2001
EXTT0=
EXTT1=
EXTT2=
EXTT3=
EXTT4=
EXTT5=
EXTT6=
EXTT7=
EXTT8=
EXTT9=
EXTT10=
EXTT11=
EXTT12=
EXTT13=
EXTT14=
EXTT15=
PLAYORDER=
